<svg xmlns="http://www.w3.org/2000/svg" width="800" height="440" viewBox="0 0 800 440" font-family="system-ui, -apple-system, 'Helvetica Neue', Helvetica, Arial, sans-serif"><rect width="800" height="440" fill="#ffffff"/><text x="24" y="34" font-size="19" fill="#0b0b0b" text-anchor="start" font-weight="600" >La part du climat dans les JT a presque triplé après 2021</text><text x="24" y="56" font-size="13" fill="#52514e" text-anchor="start" font-weight="normal" >Reportages nommant le climat, en % du total annuel de chaque chaîne</text><line x1="56" y1="362.0" x2="680" y2="362.0" stroke="#e8e8e6" stroke-width="1"/><text x="48" y="366.0" font-size="12" fill="#52514e" text-anchor="end" font-weight="normal" >0&#160;%</text><line x1="56" y1="292.5" x2="680" y2="292.5" stroke="#e8e8e6" stroke-width="1"/><text x="48" y="296.5" font-size="12" fill="#52514e" text-anchor="end" font-weight="normal" >1&#160;%</text><line x1="56" y1="223.0" x2="680" y2="223.0" stroke="#e8e8e6" stroke-width="1"/><text x="48" y="227.0" font-size="12" fill="#52514e" text-anchor="end" font-weight="normal" >2&#160;%</text><line x1="56" y1="153.5" x2="680" y2="153.5" stroke="#e8e8e6" stroke-width="1"/><text x="48" y="157.5" font-size="12" fill="#52514e" text-anchor="end" font-weight="normal" >3&#160;%</text><line x1="56" y1="84.0" x2="680" y2="84.0" stroke="#e8e8e6" stroke-width="1"/><text x="48" y="88.0" font-size="12" fill="#52514e" text-anchor="end" font-weight="normal" >4&#160;%</text><text x="56.0" y="382" font-size="11.5" fill="#52514e" text-anchor="middle" font-weight="normal" >2013</text><text x="104.0" y="382" font-size="11.5" fill="#52514e" text-anchor="middle" font-weight="normal" >2014</text><text x="152.0" y="382" font-size="11.5" fill="#52514e" text-anchor="middle" font-weight="normal" >2015</text><text x="200.0" y="382" font-size="11.5" fill="#52514e" text-anchor="middle" font-weight="normal" >2016</text><text x="248.0" y="382" font-size="11.5" fill="#52514e" text-anchor="middle" font-weight="normal" >2017</text><text x="296.0" y="382" font-size="11.5" fill="#52514e" text-anchor="middle" font-weight="normal" >2018</text><text x="344.0" y="382" font-size="11.5" fill="#52514e" text-anchor="middle" font-weight="normal" >2019</text><text x="392.0" y="382" font-size="11.5" fill="#52514e" text-anchor="middle" font-weight="normal" >2020</text><text x="440.0" y="382" font-size="11.5" fill="#52514e" text-anchor="middle" font-weight="normal" >2021</text><text x="488.0" y="382" font-size="11.5" fill="#52514e" text-anchor="middle" font-weight="normal" >2022</text><text x="536.0" y="382" font-size="11.5" fill="#52514e" text-anchor="middle" font-weight="normal" >2023</text><text x="584.0" y="382" font-size="11.5" fill="#52514e" text-anchor="middle" font-weight="normal" >2024</text><text x="632.0" y="382" font-size="11.5" fill="#52514e" text-anchor="middle" font-weight="normal" >2025</text><text x="680.0" y="382" font-size="11.5" fill="#52514e" text-anchor="middle" font-weight="normal" >2026*</text><line x1="488.0" y1="78" x2="488.0" y2="362" stroke="#b9b7b0" stroke-width="1" stroke-dasharray="3,4"/><text x="488.0" y="72" font-size="11.5" fill="#52514e" text-anchor="middle" font-weight="normal" >Charte + canicules</text><path d="M 56.0 332.1 L 104.0 340.5 L 152.0 286.2 L 200.0 334.9 L 248.0 307.1 L 296.0 309.9 L 344.0 247.3 L 392.0 306.4 L 440.0 267.5 L 488.0 167.4 L 536.0 113.9 L 584.0 168.8 L 632.0 161.1 L 680.0 119.4" fill="none" stroke-width="2" stroke-linecap="round" stroke="#2a78d6"/><path d="M 200.0 340.5 L 248.0 327.9 L 296.0 301.5 L 344.0 290.4 L 392.0 322.4 L 440.0 268.9 L 488.0 245.9 L 536.0 160.4" fill="none" stroke-width="2" stroke-linecap="round" stroke="#1baf7a"/><path d="M 536.0 160.4 L 584.0 234.8 L 632.0 300.1 L 680.0 291.8" fill="none" stroke-width="2" stroke-linecap="round" stroke-dasharray="5,5" stroke="#1baf7a"/><circle cx="690" cy="119.445" r="4" fill="#2a78d6"/><text x="700" y="123.445" font-size="13" fill="#0b0b0b" text-anchor="start" font-weight="600" >France 2</text><circle cx="690" cy="291.805" r="4" fill="#1baf7a"/><text x="700" y="295.805" font-size="13" fill="#0b0b0b" text-anchor="start" font-weight="600" >TF1</text><circle cx="536.0" cy="113.88500000000002" r="4" fill="#2a78d6" stroke="#ffffff" stroke-width="1.5"/><text x="536.0" y="103.88500000000002" font-size="11.5" fill="#0b0b0b" text-anchor="middle" font-weight="600" >3,57&#160;%</text><circle cx="680.0" cy="119.445" r="4" fill="#2a78d6" stroke="#ffffff" stroke-width="1.5"/><text x="680.0" y="109.445" font-size="11.5" fill="#0b0b0b" text-anchor="middle" font-weight="600" >3,49&#160;%</text><circle cx="536.0" cy="160.45" r="4" fill="#1baf7a" stroke="#ffffff" stroke-width="1.5"/><text x="524.0" y="164.45" font-size="11.5" fill="#0b0b0b" text-anchor="end" font-weight="600" >2,9&#160;%</text><circle cx="632.0" cy="300.145" r="4" fill="#1baf7a" stroke="#ffffff" stroke-width="1.5"/><text x="632.0" y="318.145" font-size="11.5" fill="#0b0b0b" text-anchor="middle" font-weight="600" >0,89&#160;%</text><circle cx="680.0" cy="291.805" r="4" fill="#1baf7a" stroke="#ffffff" stroke-width="1.5"/><text x="680.0" y="309.805" font-size="11.5" fill="#0b0b0b" text-anchor="middle" font-weight="600" >1,01&#160;%</text><circle cx="440.0" cy="267.48" r="4" fill="#2a78d6" stroke="#ffffff" stroke-width="1.5"/><text x="440.0" y="257.48" font-size="11.5" fill="#0b0b0b" text-anchor="middle" font-weight="600" >1,36&#160;%</text><text x="614.0" y="206.32" font-size="11" fill="#52514e" text-anchor="middle" font-weight="normal" >collecte modifiée&#8224;</text><text x="24" y="406" font-size="11" fill="#52514e" text-anchor="start" font-weight="normal" >* 2026 : année partielle, arrêtée au 14 août. &#8224; Pointillés TF1 2024-2026 : collecte modifiée, niveaux non comparables à l'avant-2024.</text><text x="24" y="424" font-size="11" fill="#8a8880" text-anchor="start" font-weight="normal" >Données : television-news-analyser · observatoire.climatmedias.org</text></svg>