<svg xmlns="http://www.w3.org/2000/svg" width="800" height="430" viewBox="0 0 800 430" font-family="system-ui, -apple-system, 'Helvetica Neue', Helvetica, Arial, sans-serif"><rect width="800" height="430" fill="#ffffff"/><text x="24" y="34" font-size="19" fill="#0b0b0b" text-anchor="start" font-weight="600" >Le témoin anonyme a remplacé le ministre</text><text x="24" y="56" font-size="13" fill="#52514e" text-anchor="start" font-weight="normal" >Part des reportages climat faisant intervenir chaque profil, en % (plusieurs</text><text x="24" y="72" font-size="13" fill="#52514e" text-anchor="start" font-weight="normal" >intervenants possibles par reportage)</text><rect x="24" y="86" width="14" height="14" rx="3" fill="#eda100"/><text x="44" y="97" font-size="12.5" fill="#0b0b0b" text-anchor="start" font-weight="normal" >2013-2021</text><rect x="128" y="86" width="14" height="14" rx="3" fill="#4a3aa7"/><text x="148" y="97" font-size="12.5" fill="#0b0b0b" text-anchor="start" font-weight="normal" >2022-2026</text><line x1="56" y1="338.0" x2="760" y2="338.0" stroke="#e8e8e6" stroke-width="1"/><text x="48" y="342.0" font-size="12" fill="#52514e" text-anchor="end" font-weight="normal" >0&#160;%</text><line x1="56" y1="280.5" x2="760" y2="280.5" stroke="#e8e8e6" stroke-width="1"/><text x="48" y="284.5" font-size="12" fill="#52514e" text-anchor="end" font-weight="normal" >10&#160;%</text><line x1="56" y1="223.0" x2="760" y2="223.0" stroke="#e8e8e6" stroke-width="1"/><text x="48" y="227.0" font-size="12" fill="#52514e" text-anchor="end" font-weight="normal" >20&#160;%</text><line x1="56" y1="165.5" x2="760" y2="165.5" stroke="#e8e8e6" stroke-width="1"/><text x="48" y="169.5" font-size="12" fill="#52514e" text-anchor="end" font-weight="normal" >30&#160;%</text><line x1="56" y1="108.0" x2="760" y2="108.0" stroke="#e8e8e6" stroke-width="1"/><text x="48" y="112.0" font-size="12" fill="#52514e" text-anchor="end" font-weight="normal" >40&#160;%</text><path d="M 109.33333333333331 338.0 L 109.33333333333331 133.275 Q 109.33333333333331 129.275 113.33333333333331 129.275 L 167.33333333333331 129.275 Q 171.33333333333331 129.275 171.33333333333331 133.275 L 171.33333333333331 338.0 Z" fill="#eda100"/><text x="140.33333333333331" y="121.275" font-size="12.5" fill="#0b0b0b" text-anchor="middle" font-weight="600" >36,3&#160;%</text><path d="M 175.33333333333331 338.0 L 175.33333333333331 191.35 Q 175.33333333333331 187.35 179.33333333333331 187.35 L 233.33333333333331 187.35 Q 237.33333333333331 187.35 237.33333333333331 191.35 L 237.33333333333331 338.0 Z" fill="#4a3aa7"/><text x="206.33333333333331" y="179.35" font-size="12.5" fill="#0b0b0b" text-anchor="middle" font-weight="600" >26,2&#160;%</text><text x="173.33333333333331" y="360.0" font-size="13" fill="#0b0b0b" text-anchor="middle" font-weight="normal" >Politique</text><path d="M 343.99999999999994 338.0 L 343.99999999999994 185.025 Q 343.99999999999994 181.025 347.99999999999994 181.025 L 401.99999999999994 181.025 Q 405.99999999999994 181.025 405.99999999999994 185.025 L 405.99999999999994 338.0 Z" fill="#eda100"/><text x="374.99999999999994" y="173.025" font-size="12.5" fill="#0b0b0b" text-anchor="middle" font-weight="600" >27,3&#160;%</text><path d="M 409.99999999999994 338.0 L 409.99999999999994 166.05 Q 409.99999999999994 162.05 413.99999999999994 162.05 L 467.99999999999994 162.05 Q 471.99999999999994 162.05 471.99999999999994 166.05 L 471.99999999999994 338.0 Z" fill="#4a3aa7"/><text x="440.99999999999994" y="154.05" font-size="12.5" fill="#0b0b0b" text-anchor="middle" font-weight="600" >30,6&#160;%</text><text x="407.99999999999994" y="360.0" font-size="13" fill="#0b0b0b" text-anchor="middle" font-weight="normal" >Scientifique</text><path d="M 578.6666666666666 338.0 L 578.6666666666666 288.525 Q 578.6666666666666 284.525 582.6666666666666 284.525 L 636.6666666666666 284.525 Q 640.6666666666666 284.525 640.6666666666666 288.525 L 640.6666666666666 338.0 Z" fill="#eda100"/><text x="609.6666666666666" y="276.525" font-size="12.5" fill="#0b0b0b" text-anchor="middle" font-weight="600" >9,3&#160;%</text><path d="M 644.6666666666666 338.0 L 644.6666666666666 164.9 Q 644.6666666666666 160.9 648.6666666666666 160.9 L 702.6666666666666 160.9 Q 706.6666666666666 160.9 706.6666666666666 164.9 L 706.6666666666666 338.0 Z" fill="#4a3aa7"/><text x="675.6666666666666" y="152.9" font-size="12.5" fill="#0b0b0b" text-anchor="middle" font-weight="600" >30,8&#160;%</text><text x="642.6666666666666" y="360.0" font-size="13" fill="#0b0b0b" text-anchor="middle" font-weight="normal" >Témoin anonyme</text><text x="529.3333333333333" y="112.59999999999998" font-size="12" fill="#0b0b0b" text-anchor="start" font-weight="600" >&#215;3 depuis 2022 :</text><text x="529.3333333333333" y="127.54999999999998" font-size="12" fill="#0b0b0b" text-anchor="start" font-weight="600" >il dépasse le scientifique</text><text x="24" y="396" font-size="11" fill="#52514e" text-anchor="start" font-weight="normal" >Classification par IA des 3 448 reportages climat 2013-2026 (méthode et limites publiées).</text><text x="24" y="414" font-size="11" fill="#8a8880" text-anchor="start" font-weight="normal" >Données : television-news-analyser · observatoire.climatmedias.org</text></svg>