<svg xmlns="http://www.w3.org/2000/svg" width="800" height="440" viewBox="0 0 800 440" font-family="system-ui, -apple-system, 'Helvetica Neue', Helvetica, Arial, sans-serif"><rect width="800" height="440" fill="#ffffff"/><text x="24" y="34" font-size="19" fill="#0b0b0b" font-weight="600">Le pouvoir d'achat immobilier des primo-acc&#233;dants depuis 1965</text><text x="24" y="56" font-size="13" fill="#52514e">Indicateur de pouvoir d'achat immobilier (taux nominal), base T1 2000&#160;=&#160;1</text><line x1="56" y1="341.8" x2="745" y2="341.8" stroke="#e8e8e6"/><text x="48" y="345.8" font-size="12" fill="#52514e" text-anchor="end">0,6</text><line x1="56" y1="265.2" x2="745" y2="265.2" stroke="#e8e8e6"/><text x="48" y="269.2" font-size="12" fill="#52514e" text-anchor="end">0,8</text><line x1="56" y1="188.8" x2="745" y2="188.8" stroke="#e8e8e6"/><text x="48" y="192.8" font-size="12" fill="#52514e" text-anchor="end">1,0</text><line x1="56" y1="112.3" x2="745" y2="112.3" stroke="#e8e8e6"/><text x="48" y="116.3" font-size="12" fill="#52514e" text-anchor="end">1,2</text><text x="111.6" y="400" font-size="11.5" fill="#52514e" text-anchor="middle">1970</text><text x="222.7" y="400" font-size="11.5" fill="#52514e" text-anchor="middle">1980</text><text x="333.8" y="400" font-size="11.5" fill="#52514e" text-anchor="middle">1990</text><text x="445.0" y="400" font-size="11.5" fill="#52514e" text-anchor="middle">2000</text><text x="556.1" y="400" font-size="11.5" fill="#52514e" text-anchor="middle">2010</text><text x="667.2" y="400" font-size="11.5" fill="#52514e" text-anchor="middle">2020</text><path d="M56.0,188.8 L67.1,196.4 L78.2,207.9 L89.3,215.5 L100.5,227.0 L111.6,234.7 L122.7,219.3 L133.8,200.2 L144.9,215.5 L156.0,242.3 L167.1,234.7 L178.2,242.3 L189.4,250.0 L200.5,257.6 L211.6,253.8 L222.7,257.6 L233.8,265.2 L244.9,269.1 L256.0,257.6 L267.1,246.1 L278.3,242.3 L289.4,234.7 L300.5,227.0 L311.6,238.5 L322.7,261.4 L333.8,276.7 L344.9,272.9 L356.0,257.6 L367.2,242.3 L378.3,227.0 L389.4,219.3 L400.5,200.2 L411.6,177.3 L422.7,150.5 L433.8,131.4 L445.0,188.8 L456.1,181.1 L467.2,200.2 L478.3,227.0 L489.4,253.8 L500.5,276.7 L511.6,299.7 L522.7,318.8 L533.9,334.1 L545.0,311.1 L556.1,303.5 L567.2,326.4 L578.3,318.8 L589.4,303.5 L600.5,295.9 L611.6,280.6 L622.8,269.1 L633.9,265.2 L645.0,269.1 L656.1,265.2 L667.2,272.9 L678.3,280.6 L689.4,303.5 L700.5,311.1 L711.7,299.7 L722.8,288.2" fill="none" stroke="#2a78d6" stroke-width="2.5" stroke-linejoin="round"/><circle cx="333.8" cy="276.7" r="4" fill="#2a78d6" stroke="#fff" stroke-width="2"/><text x="333.8" y="264.7" font-size="12" fill="#0b0b0b" text-anchor="middle" font-weight="600">1990&#160;: 0,77</text><circle cx="433.8" cy="131.4" r="4" fill="#2a78d6" stroke="#fff" stroke-width="2"/><text x="433.8" y="121.4" font-size="12" fill="#0b0b0b" text-anchor="middle" font-weight="600">1999&#160;: 1,15, le jackpot</text><circle cx="533.9" cy="334.1" r="4" fill="#2a78d6" stroke="#fff" stroke-width="2"/><text x="533.9" y="356.1" font-size="12" fill="#0b0b0b" text-anchor="middle" font-weight="600">2008&#160;: 0,62, le pire de la s&#233;rie</text><circle cx="722.8" cy="288.2" r="4" fill="#2a78d6" stroke="#fff" stroke-width="2"/><text x="722.8" y="276.2" font-size="12" fill="#0b0b0b" text-anchor="middle" font-weight="600">0,74</text><text x="776" y="426" font-size="11" fill="#52514e" text-anchor="end">Source&#160;: J.&#160;Friggit, IGEDD, mars 2026 (valeurs relev&#233;es sur graphique)</text></svg>